<svg xmlns="http://www.w3.org/2000/svg" width="48" height="48" viewBox="0 0 48 48">
  <g fill="none" stroke="#8fcaff" stroke-width="3" stroke-linecap="round" stroke-linejoin="round">
    <path d="m27 7 1.4 4.3c.8.3 1.5.6 2.2 1l4.1-2 4 4-2 4.1c.4.7.7 1.4 1 2.2L42 22v5.8l-4.3 1.4c-.3.8-.6 1.5-1 2.2l2 4.1-4 4-4.1-2c-.7.4-1.4.7-2.2 1L27 43h-6l-1.4-4.3c-.8-.3-1.5-.6-2.2-1l-4.1 2-4-4 2-4.1c-.4-.7-.7-1.4-1-2.2L6 28v-5.8l4.3-1.4c.3-.8.6-1.5 1-2.2l-2-4.1 4-4 4.1 2c.7-.4 1.4-.7 2.2-1L21 7h6Z"/>
    <circle cx="24" cy="24" r="7" fill="#132235"/>
  </g>
</svg>
