<svg xmlns="http://www.w3.org/2000/svg" width="48" height="48" viewBox="0 0 48 48" preserveAspectRatio="xMidYMid meet" shape-rendering="geometricPrecision">
  <svg x="11.512" y="8.000" width="24.976" height="32.000" viewBox="0 0 95.869936 122.275789" preserveAspectRatio="xMidYMid meet">
    <g transform="translate(-16.065032,127.775789) scale(0.100000,-0.100000)"
fill="#8fcaff" stroke="none">
<path d="M572 1264 c-56 -29 -86 -77 -90 -149 l-4 -63 -58 -4 c-43 -3 -67 -11
-93 -31 -66 -50 -75 -156 -20 -225 l30 -36 -31 -16 c-28 -14 -36 -30 -88 -180
l-57 -165 0 -151 c-1 -115 2 -155 13 -170 14 -18 30 -19 466 -19 436 0 452 1
466 19 11 15 14 55 13 170 l0 151 -57 165 c-52 150 -60 166 -88 180 l-31 16
30 36 c55 69 46 175 -20 225 -26 20 -50 28 -94 31 l-59 4 0 50 c0 62 -23 111
-67 145 -43 33 -114 41 -161 17z m106 -106 c8 -8 12 -62 12 -175 0 -90 3 -163
7 -163 4 0 38 30 74 66 58 57 71 66 93 60 29 -7 50 -39 42 -64 -3 -9 -64 -75
-136 -147 l-130 -130 -130 130 c-72 72 -133 138 -136 147 -8 25 13 57 42 64
22 6 35 -3 93 -60 36 -36 70 -66 74 -66 4 0 7 73 7 163 0 175 3 187 50 187 14
0 31 -5 38 -12z m-131 -610 l93 -93 93 93 94 93 48 -3 48 -3 39 -115 c21 -63
41 -123 44 -132 5 -17 -17 -18 -365 -18 -204 0 -371 1 -371 3 0 3 76 230 85
255 3 7 23 12 52 12 47 0 49 -2 140 -92z m463 -308 l0 -80 -370 0 -370 0 0 80
0 80 370 0 370 0 0 -80z"/>
</g>
  </svg>
</svg>
