<svg xmlns="http://www.w3.org/2000/svg" width="48" height="48" viewBox="0 0 48 48" preserveAspectRatio="xMidYMid meet" shape-rendering="geometricPrecision">
  <svg x="8.000" y="10.167" width="32.000" height="27.667" viewBox="0 0 96.003006 82.270178" preserveAspectRatio="xMidYMid meet">
    <g transform="translate(-5.996994,96.779563) scale(0.100000,-0.100000)"
fill="#8fcaff" stroke="none">
<path d="M554 960 c-43 -17 -64 -58 -64 -125 l0 -62 -42 -12 c-191 -57 -348
-232 -378 -421 -20 -129 -11 -178 34 -194 15 -5 33 8 80 58 75 79 123 111 201
131 100 26 105 24 105 -39 0 -43 5 -60 25 -84 29 -35 75 -47 114 -29 16 6 110
91 210 188 137 132 181 181 181 199 0 19 -44 67 -177 198 -200 194 -232 215
-289 192z m331 -390 c0 -4 -66 -72 -147 -150 l-148 -142 0 91 0 91 -64 0
c-119 0 -268 -44 -330 -99 -18 -15 -18 -15 -12 9 29 98 123 213 215 259 35 18
151 50 184 51 4 0 7 41 7 91 l0 91 148 -142 c81 -78 147 -146 147 -150z"/>
</g>
  </svg>
</svg>
