<svg xmlns="http://www.w3.org/2000/svg" width="48" height="48" viewBox="0 0 48 48" preserveAspectRatio="xMidYMid meet" shape-rendering="geometricPrecision">
  <svg x="8.000" y="9.220" width="32.000" height="29.559" viewBox="0 0 116.453175 107.919794" preserveAspectRatio="xMidYMid meet">
    <g transform="translate(-5.819552,118.919794) scale(0.100000,-0.100000)"
fill="#8fcaff" stroke="none">
<path d="M381 971 c-327 -282 -322 -277 -323 -330 -1 -59 37 -98 104 -107 l48
-7 0 -151 c0 -169 9 -216 47 -246 25 -19 38 -20 383 -20 345 0 358 1 383 20
38 30 47 77 47 246 l0 151 48 7 c65 8 105 48 105 105 0 23 -7 48 -14 58 -15
18 -567 494 -571 492 -2 0 -117 -99 -257 -218z m496 -123 l238 -203 -78 -3
-77 -3 0 -214 0 -215 -80 0 -80 0 0 160 0 160 -160 0 -160 0 0 -160 0 -160
-80 0 -80 0 0 215 0 214 -77 3 -78 3 235 202 c129 111 236 202 238 202 1 1
109 -90 239 -201z m-129 -500 l-3 -133 -105 0 -105 0 -3 133 -3 132 111 0 111
0 -3 -132z"/>
</g>
  </svg>
</svg>
